<?xml version="1.0" standalone="no"?>
<!DOCTYPE svg PUBLIC "-//W3C//DTD SVG 20010904//EN"
 "http://www.w3.org/TR/2001/REC-SVG-20010904/DTD/svg10.dtd">
<svg version="1.0" xmlns="http://www.w3.org/2000/svg"
 width="279.000000pt" height="126.000000pt" viewBox="0 0 279.000000 126.000000"
 preserveAspectRatio="xMidYMid meet">
<metadata>
Created by potrace 1.10, written by Peter Selinger 2001-2011
</metadata>
<g transform="translate(0.000000,126.000000) scale(0.100000,-0.100000)"
fill="#e53217" stroke="none">
<path d="M1157 1243 c-4 -3 -7 -264 -7 -579 0 -506 2 -573 15 -568 13 5 15 79
15 580 0 316 -4 574 -8 574 -5 0 -12 -3 -15 -7z"/>
<path d="M2353 1217 c-15 -6 -23 -19 -23 -34 0 -21 3 -23 23 -17 29 9 29 8 25
37 -3 21 -6 23 -25 14z"/>
<path d="M1613 1213 c-18 -3 -23 -11 -23 -37 0 -30 -3 -33 -30 -33 -17 0 -38
-7 -47 -16 -22 -21 -30 -112 -12 -134 12 -16 12 -17 -2 -6 -9 7 -50 13 -97 14
-45 1 -85 5 -87 9 -3 5 5 6 16 3 20 -6 21 -3 16 23 -3 16 -4 23 -1 17 4 -8 25
-13 55 -13 47 0 49 1 49 29 0 71 -80 101 -127 47 -28 -33 -31 -100 -7 -134 15
-22 22 -23 113 -21 53 1 104 -2 113 -6 10 -4 24 1 37 14 15 15 21 17 21 7 0
-7 9 -16 20 -19 19 -5 20 0 20 129 0 74 -1 133 -2 133 -2 -1 -13 -4 -25 -6z
m7 -88 c0 -8 -4 -15 -10 -15 -5 0 -7 7 -4 15 4 8 8 15 10 15 2 0 4 -7 4 -15z
m-222 -38 c3 -12 -3 -17 -22 -17 -25 0 -35 18 -19 34 12 12 38 2 41 -17z m190
-34 c-3 -58 -3 -58 -35 -60 -18 -1 -35 3 -38 8 -4 5 1 6 9 3 13 -5 16 2 16 34
0 54 8 72 32 72 17 0 19 -6 16 -57z"/>
<path d="M466 1197 c-16 -12 -18 -26 -15 -110 2 -54 3 -93 1 -87 -2 5 -17 10
-32 10 -34 0 -50 23 -50 69 0 34 -2 36 -32 20 -18 -10 -20 -17 -14 -64 3 -30
2 -56 -3 -59 -5 -4 -7 3 -4 14 5 17 0 20 -26 20 -20 0 -34 -6 -38 -16 -4 -11
-8 -12 -13 -4 -5 8 -12 7 -24 -5 -9 -9 -16 -12 -16 -7 0 15 28 34 40 27 5 -3
13 1 16 9 8 20 -19 63 -45 71 -25 7 -77 -18 -91 -45 -16 -29 14 -26 52 5 16
14 35 25 41 25 7 -1 1 -7 -12 -14 -19 -11 -21 -14 -7 -19 9 -4 16 -12 16 -18
0 -8 -19 -10 -64 -7 -93 8 -96 5 -96 -107 0 -88 1 -95 20 -95 18 0 20 7 20 79
l0 79 60 -5 c36 -4 65 -1 73 5 8 7 18 7 27 2 22 -14 98 -12 103 3 4 10 7 10
18 0 17 -16 91 -17 107 -1 7 7 13 21 13 33 1 13 4 9 8 -10 6 -28 9 -30 60 -33
44 -3 58 1 77 19 36 34 30 79 -6 47 -12 -11 -12 -10 -2 3 10 13 9 19 -3 29 -8
7 -15 18 -15 24 0 8 3 8 8 0 4 -6 15 -13 24 -17 10 -3 20 -17 24 -31 6 -24 7
-24 30 -9 29 18 31 44 6 66 -26 23 -78 21 -114 -4 l-29 -21 27 -29 28 -29 -41
0 c-63 0 -73 16 -73 116 0 46 -4 84 -8 84 -5 0 -16 -6 -26 -13z m-96 -195 c0
-15 -2 -15 -10 -2 -8 12 -10 12 -10 1 0 -8 -2 -12 -5 -9 -3 3 -3 13 1 22 7 19
24 11 24 -12z m-297 -57 c-3 -9 -8 -14 -10 -11 -3 3 -2 9 2 15 9 16 15 13 8
-4z"/>
<path d="M738 1203 c-11 -3 -18 -14 -18 -30 0 -19 4 -24 16 -19 9 3 20 6 25 6
5 0 9 11 9 25 0 25 -1 26 -32 18z"/>
<path d="M798 1199 c-19 -10 -25 -49 -9 -49 25 0 41 14 41 36 0 26 -6 29 -32
13z"/>
<path d="M901 1198 c-23 -8 -24 -10 -19 -107 3 -55 1 -106 -4 -115 -13 -23 14
-21 36 3 14 15 16 36 14 123 l-3 105 -24 -9z"/>
<path d="M987 1197 c-15 -11 -17 -28 -15 -126 3 -111 4 -114 26 -116 22 -2 22
0 22 127 0 70 -4 128 -8 128 -5 0 -16 -6 -25 -13z"/>
<path d="M2213 1183 c-16 -6 -18 -175 -3 -204 9 -16 22 -19 80 -19 48 0 70 4
70 12 0 9 3 9 12 0 16 -16 81 -16 76 0 -4 12 -21 23 -50 32 -15 4 -18 17 -18
75 l0 71 -26 -12 c-25 -11 -25 -15 -23 -84 2 -40 0 -76 -4 -81 -5 -4 -5 0 -2
9 5 13 -1 17 -32 20 l-38 3 0 93 c0 95 -3 101 -42 85z"/>
<path d="M1698 1143 c-15 -4 -18 -17 -18 -84 0 -72 2 -80 25 -95 22 -14 27
-14 55 -1 16 9 30 11 30 6 0 -5 9 -9 20 -9 19 0 20 7 20 96 0 84 -2 95 -16 90
-9 -3 -20 -6 -25 -6 -5 0 -9 -31 -9 -70 0 -38 -3 -71 -7 -71 -50 -9 -48 -11
-45 72 2 44 0 78 -5 78 -4 -1 -16 -3 -25 -6z"/>
<path d="M1925 1143 c-47 -11 -75 -71 -61 -127 12 -47 32 -57 115 -57 116 1
120 1 139 3 9 0 24 -1 32 -3 10 -3 14 3 13 16 -1 11 -3 48 -4 82 -2 74 -14 88
-70 86 -47 -2 -60 -9 -53 -28 4 -10 20 -13 57 -10 29 2 46 1 40 -2 -7 -2 -13
-11 -13 -19 0 -9 -10 -14 -28 -14 -35 0 -72 -26 -72 -51 0 -16 -7 -19 -49 -19
-41 0 -50 3 -54 21 -8 30 3 80 19 86 7 2 21 0 32 -6 16 -8 21 -7 26 6 10 26
-27 46 -69 36z m195 -123 c0 -24 -26 -38 -42 -22 -16 16 -2 42 22 42 13 0 20
-7 20 -20z"/>
<path d="M2474 1136 c-36 -16 -44 -32 -44 -86 0 -84 86 -125 137 -66 31 36 31
96 1 130 -30 32 -56 38 -94 22z m61 -56 c4 -16 4 -44 0 -61 -5 -24 -11 -29
-28 -27 -18 2 -23 11 -25 47 -4 54 2 71 27 71 13 0 21 -9 26 -30z"/>
<path d="M2703 1140 c-13 -5 -23 -17 -23 -26 0 -11 5 -14 17 -10 24 10 33 -11
33 -81 0 -60 1 -63 25 -63 25 0 25 1 25 79 0 71 -2 82 -22 95 -25 18 -25 18
-55 6z m62 -50 c3 -6 -1 -7 -9 -4 -18 7 -21 14 -7 14 6 0 13 -4 16 -10z"/>
<path d="M2260 1126 c0 -15 24 -28 34 -19 13 14 5 33 -14 33 -11 0 -20 -6 -20
-14z"/>
<path d="M2635 1132 c-5 -4 -10 -44 -10 -90 l0 -82 28 0 c26 0 27 1 27 59 0
103 -13 137 -45 113z"/>
<path d="M776 1101 c-17 -6 -20 -17 -19 -67 1 -32 -1 -51 -3 -41 -6 20 -54 23
-86 6 -21 -11 -21 -12 -3 -25 28 -21 114 -18 122 3 4 9 2 18 -5 21 -6 2 -8 10
-5 18 8 21 23 7 23 -21 0 -33 47 -47 67 -20 19 26 16 35 -9 35 -39 0 -53 16
-53 59 0 23 -2 41 -5 40 -3 0 -14 -4 -24 -8z"/>
<path d="M304 930 c-18 -7 -23 -29 -15 -58 1 -1 9 2 20 7 10 6 21 22 23 36 6
27 4 28 -28 15z"/>
<path d="M373 929 c-31 -12 -33 -60 -2 -52 22 6 33 23 27 46 -2 11 -9 12 -25
6z"/>
<path d="M948 833 c-12 -3 -18 -14 -18 -34 0 -27 1 -28 25 -17 16 7 25 19 25
35 0 23 -2 24 -32 16z"/>
<path d="M538 823 c-12 -3 -18 -14 -18 -34 0 -27 1 -28 25 -17 16 7 25 19 25
35 0 23 -2 24 -32 16z"/>
<path d="M603 819 c-30 -11 -31 -49 -3 -49 22 0 34 19 28 43 -2 11 -9 12 -25
6z"/>
<path d="M1513 817 c-22 -9 -23 -16 -23 -114 0 -103 0 -104 -22 -101 -21 3
-23 9 -26 63 -3 68 -17 85 -68 85 -47 0 -63 -8 -57 -30 4 -15 9 -17 30 -9 34
13 40 12 46 -10 4 -16 -2 -21 -34 -26 -40 -7 -59 -27 -59 -63 0 -41 63 -68 92
-39 11 12 16 12 26 0 18 -18 101 -17 108 2 5 13 8 13 21 0 16 -17 41 -19 62
-6 7 5 25 4 41 -2 35 -13 67 -3 51 17 -15 18 -59 26 -64 12 -2 -6 -2 15 1 46
6 78 -15 113 -63 105 -34 -6 -34 -5 -37 37 -3 41 -4 43 -25 33z m14 -99 c-3
-8 -6 -5 -6 6 -1 11 2 17 5 13 3 -3 4 -12 1 -19z m61 -67 c-3 -38 -6 -46 -23
-46 -17 0 -20 8 -23 49 -2 32 1 52 10 57 23 15 39 -12 36 -60z m42 43 c0 -2
-9 0 -20 6 -11 6 -20 13 -20 16 0 2 9 0 20 -6 11 -6 20 -13 20 -16z m-230 -63
c0 -23 -18 -37 -50 -38 -14 -1 -19 1 -12 4 6 3 12 13 12 23 0 18 12 28 38 29
6 1 12 -7 12 -18z"/>
<path d="M413 750 c-21 -9 -23 -16 -23 -84 l0 -75 56 -42 c31 -22 68 -44 84
-49 66 -19 113 46 108 147 -6 99 -56 133 -110 76 -63 -68 -57 -103 18 -103 37
0 44 3 44 19 0 11 5 23 11 27 7 4 9 0 6 -12 -3 -11 -11 -38 -17 -62 -10 -39
-52 -83 -66 -69 -3 3 4 8 15 12 12 3 21 9 21 13 -1 4 -30 25 -66 47 -36 22
-71 47 -77 55 -10 13 -10 13 6 1 16 -12 17 -9 17 48 0 33 -1 61 -2 60 -2 0
-13 -4 -25 -9z m187 -24 c0 -2 -7 -7 -16 -10 -8 -3 -12 -2 -9 4 6 10 25 14 25
6z m-48 -33 c15 10 20 9 28 -3 14 -22 -38 -27 -56 -6 -8 9 -9 12 -3 7 7 -6 19
-5 31 2z m-68 -125 c21 -15 35 -28 29 -28 -10 0 -93 59 -93 66 0 6 14 -2 64
-38z"/>
<path d="M926 735 c-34 -37 -38 -62 -13 -80 34 -24 66 -19 79 13 10 24 12 25
16 7 2 -10 -1 -21 -7 -23 -6 -2 -11 -13 -11 -25 0 -12 -5 -29 -11 -37 -8 -12
-9 -10 -4 8 6 21 4 22 -69 22 l-74 0 -12 35 c-22 66 -93 57 -130 -15 -27 -53
-15 -70 46 -70 37 0 44 3 44 19 0 11 4 22 9 25 16 10 41 -5 41 -25 0 -21 -26
-26 -32 -7 -3 7 -10 -8 -16 -33 -6 -24 -23 -55 -36 -69 -20 -18 -23 -26 -15
-37 16 -18 23 -17 58 13 21 18 33 38 37 65 l7 39 69 0 c67 0 105 11 120 34 4
6 8 38 8 72 0 46 -4 65 -18 77 -27 24 -59 21 -86 -8z m61 -6 c-14 -8 -16 -14
-6 -25 9 -12 6 -14 -19 -14 -17 0 -34 5 -38 12 -4 7 -3 8 4 4 6 -4 20 2 32 14
11 11 26 20 33 20 6 0 4 -5 -6 -11z m-197 -53 c0 -2 -7 -7 -16 -10 -8 -3 -12
-2 -9 4 6 10 25 14 25 6z m-12 -43 c5 -17 -54 -18 -64 -1 -4 6 -3 8 4 4 6 -3
14 -2 17 4 9 14 37 9 43 -7z"/>
<path d="M1710 732 c-15 -12 -24 -33 -27 -63 -4 -38 -1 -50 22 -77 34 -40 75
-43 110 -7 24 23 29 43 25 95 -5 61 -81 91 -130 52z m76 -36 c3 -13 4 -38 2
-57 -2 -26 -8 -35 -24 -37 -26 -4 -38 32 -28 84 8 41 40 48 50 10z"/>
<path d="M1850 748 c0 -2 15 -43 33 -93 28 -79 35 -90 56 -90 21 0 27 11 56
93 l32 93 -26 -3 c-23 -3 -28 -11 -43 -63 -9 -33 -17 -62 -18 -65 -1 -3 -9 24
-18 60 -15 59 -20 65 -44 68 -16 2 -28 2 -28 0z"/>
<path d="M2062 727 c-30 -32 -37 -76 -19 -120 18 -41 46 -53 102 -43 25 5 35
12 35 25 0 17 -7 18 -59 15 -33 -2 -62 0 -65 5 -3 5 3 7 13 4 17 -4 19 -1 14
34 -3 26 1 44 11 58 16 20 16 20 31 1 8 -11 15 -27 14 -35 0 -11 -2 -12 -6 -3
-8 20 -43 14 -43 -8 0 -17 7 -20 51 -20 l52 0 -6 36 c-3 20 -14 45 -23 55 -24
27 -75 25 -102 -4z"/>
<path d="M1508 423 c-16 -4 -18 -19 -18 -132 0 -126 0 -128 23 -126 21 2 22 5
25 133 1 73 -1 131 -5 131 -4 -1 -16 -3 -25 -6z"/>
<path d="M1597 417 c-15 -11 -17 -28 -15 -131 3 -116 4 -119 26 -121 22 -2 22
0 22 132 0 73 -4 133 -8 133 -5 0 -16 -6 -25 -13z"/>
<path d="M898 409 c-15 -8 -18 -25 -18 -97 0 -56 5 -93 13 -102 10 -12 9 -12
-3 -3 -8 5 -34 13 -58 16 -23 3 -50 11 -58 18 -14 12 -14 14 2 26 10 7 25 13
35 13 16 0 29 19 29 44 0 8 -33 13 -113 15 -91 2 -116 0 -126 -13 -19 -23 3
-60 29 -46 10 5 35 10 55 10 19 0 48 8 63 17 22 15 25 15 15 2 -7 -9 -9 -20
-5 -24 4 -5 1 -5 -6 -1 -9 5 -31 -4 -59 -24 -35 -25 -57 -34 -96 -36 -46 -2
-51 -5 -51 -26 -1 -20 5 -23 38 -26 57 -5 81 4 129 46 23 20 36 29 29 20 -12
-15 -10 -21 12 -43 21 -21 34 -25 85 -25 83 0 91 13 91 147 0 57 -3 103 -7
103 -5 0 -16 -5 -25 -11z"/>
<path d="M988 413 c-16 -4 -18 -19 -18 -124 l0 -119 25 0 25 0 0 125 c0 69 -3
124 -7 124 -5 -1 -16 -3 -25 -6z"/>
<path d="M1345 350 c-16 -3 -29 -9 -27 -13 1 -4 2 -12 2 -17 0 -7 13 -8 34 -5
28 6 34 4 39 -14 4 -17 1 -21 -22 -21 -66 0 -98 -72 -46 -106 21 -14 30 -15
52 -5 14 7 29 8 32 4 3 -4 12 -9 19 -11 9 -1 12 20 12 82 0 55 -4 87 -12 93
-19 15 -49 20 -83 13z m50 -128 c0 -24 -3 -28 -22 -24 -16 3 -23 11 -23 28 0
18 5 24 23 24 18 0 22 -6 22 -28z"/>
<path d="M111 309 l-34 -20 27 -27 26 -28 -34 -18 c-19 -10 -49 -33 -66 -51
l-32 -33 21 -30 c12 -17 36 -42 53 -57 26 -22 39 -26 67 -21 46 7 67 29 55 56
-8 19 -11 19 -29 6 -17 -14 -18 -17 -5 -26 8 -5 10 -10 4 -10 -7 0 -30 21 -52
47 l-39 47 -17 -29 c-10 -17 -15 -22 -12 -13 3 9 0 19 -7 21 -9 3 -9 8 1 18 9
10 12 10 12 0 0 -7 22 4 51 25 50 36 51 37 79 21 36 -22 106 -22 118 -1 8 14
10 14 21 0 15 -18 76 -22 86 -6 4 6 17 4 35 -5 38 -20 63 -19 83 3 21 23 22
36 1 28 -8 -3 -29 1 -46 10 -28 14 -31 14 -45 -3 -8 -10 -7 -4 4 15 20 37 43
38 58 4 10 -23 25 -30 25 -12 0 5 5 9 11 7 22 -4 20 21 -3 47 -14 16 -38 29
-60 32 -30 5 -38 3 -48 -16 -10 -18 -9 -24 1 -32 11 -8 10 -9 -3 -4 -11 3 -19
-2 -23 -15 -7 -21 -49 -27 -61 -7 -5 8 -10 6 -15 -8 -4 -10 -5 8 -1 40 5 53 3
59 -12 53 -10 -4 -22 -7 -27 -7 -5 0 -9 -20 -9 -45 0 -45 0 -45 -35 -45 -39 0
-44 9 -15 28 11 7 20 19 20 27 0 24 -38 55 -67 55 -16 0 -43 -9 -62 -21z m66
-35 c2 -5 -7 -15 -19 -23 -18 -10 -20 -10 -11 0 10 10 9 16 -4 31 -16 18 -16
18 7 10 13 -5 25 -13 27 -18z m28 8 c-3 -3 -11 0 -18 7 -9 10 -8 11 6 5 10 -3
15 -9 12 -12z m-20 -51 c3 -5 1 -12 -5 -16 -5 -3 -10 1 -10 9 0 18 6 21 15 7z
m97 -31 c-12 -12 -22 -15 -22 -9 0 13 32 40 39 33 3 -2 -5 -13 -17 -24z m91
-5 c-3 -9 -8 -14 -10 -11 -3 3 -2 9 2 15 9 16 15 13 8 -4z m-257 -142 c-8 -8
-46 22 -46 36 0 10 8 7 25 -9 14 -13 23 -25 21 -27z"/>
<path d="M248 143 c-19 -5 -26 -53 -9 -53 25 0 41 14 41 36 0 24 -2 25 -32 17z"/>
<path d="M308 139 c-19 -10 -25 -49 -9 -49 25 0 41 14 41 36 0 26 -6 29 -32
13z"/>
<path d="M688 143 c-19 -5 -26 -53 -9 -53 25 0 41 14 41 36 0 24 -2 25 -32 17z"/>
</g>
</svg>
